<?xml version="1.0" standalone="no"?>
<!DOCTYPE svg PUBLIC "-//W3C//DTD SVG 20010904//EN"
 "http://www.w3.org/TR/2001/REC-SVG-20010904/DTD/svg10.dtd">
<svg version="1.0" xmlns="http://www.w3.org/2000/svg"
 width="1024.000000pt" height="1024.000000pt" viewBox="0 0 1024.000000 1024.000000"
 preserveAspectRatio="xMidYMid meet">
<metadata>
Created by potrace 1.11, written by Peter Selinger 2001-2013
</metadata>
<g transform="translate(0.000000,1024.000000) scale(0.100000,-0.100000)"
fill="#000000" stroke="none">
<path d="M4809 10235 c-3 -3 -35 -7 -70 -10 -184 -13 -231 -19 -359 -40 -14
-2 -45 -7 -70 -10 -79 -9 -125 -18 -225 -40 -38 -8 -79 -17 -90 -20 -177 -38
-473 -122 -580 -164 -11 -5 -31 -13 -45 -18 -14 -6 -52 -20 -85 -32 -130 -48
-205 -82 -417 -185 -87 -42 -161 -76 -164 -75 -4 0 -10 -3 -13 -8 -3 -4 -60
-39 -126 -77 -145 -83 -347 -214 -456 -296 -44 -33 -83 -60 -87 -60 -4 0 -14
-9 -22 -20 -8 -11 -18 -20 -21 -20 -4 0 -18 -9 -31 -20 -12 -10 -45 -38 -73
-60 -221 -182 -469 -425 -630 -616 -22 -26 -49 -57 -60 -70 -27 -30 -44 -51
-85 -104 -19 -25 -37 -47 -40 -50 -3 -3 -28 -36 -55 -75 -27 -38 -52 -72 -56
-75 -16 -12 -227 -343 -260 -407 -12 -24 -25 -43 -31 -43 -5 0 -7 -4 -4 -9 4
-5 3 -11 -1 -13 -17 -7 -266 -519 -277 -568 -2 -8 -58 -153 -71 -185 -7 -16
-32 -91 -55 -165 -23 -74 -44 -142 -47 -150 -6 -15 -10 -30 -16 -52 -2 -7 -6
-22 -10 -33 -3 -11 -8 -31 -11 -45 -3 -14 -17 -74 -31 -135 -14 -60 -27 -119
-29 -130 -3 -11 -9 -42 -15 -70 -6 -27 -13 -66 -16 -85 -19 -130 -27 -179 -31
-205 -6 -38 -10 -70 -18 -170 -4 -44 -10 -105 -14 -135 -9 -71 -8 -665 1 -750
4 -36 9 -94 13 -130 3 -36 7 -76 9 -90 11 -89 17 -135 31 -215 9 -49 17 -103
20 -120 2 -16 6 -41 9 -55 3 -14 10 -47 16 -75 6 -27 12 -59 15 -70 4 -18 46
-182 75 -290 6 -22 12 -44 13 -50 2 -5 5 -17 9 -25 3 -8 22 -67 43 -130 21
-63 41 -119 44 -125 4 -5 11 -23 15 -40 11 -40 10 -37 23 -65 6 -14 34 -81 63
-150 81 -191 188 -402 315 -618 74 -128 338 -510 374 -542 3 -3 32 -39 65 -79
33 -41 71 -87 85 -102 14 -14 52 -57 85 -95 73 -82 259 -269 344 -344 35 -30
86 -76 114 -102 29 -26 55 -48 59 -48 3 0 19 -13 35 -28 15 -15 44 -39 63 -52
19 -14 42 -31 50 -38 8 -8 42 -33 75 -58 33 -24 65 -48 70 -52 20 -16 300
-200 330 -216 17 -9 48 -28 70 -41 51 -32 270 -149 310 -167 17 -7 33 -16 36
-21 3 -5 8 -8 10 -7 2 1 39 -14 83 -34 118 -54 182 -81 276 -117 47 -18 99
-38 115 -44 85 -36 417 -136 447 -136 4 0 26 -6 48 -14 22 -8 40 -12 40 -10 0
3 11 0 24 -5 23 -8 132 -32 206 -45 19 -3 51 -10 70 -15 19 -4 58 -11 85 -15
95 -11 110 -13 145 -20 19 -3 42 -8 50 -10 8 -2 58 -7 110 -10 52 -3 120 -9
150 -13 69 -9 668 -9 735 0 28 4 97 9 155 13 58 4 108 9 111 11 4 2 22 6 40 8
100 13 254 38 261 42 3 2 26 7 50 10 24 3 59 10 78 14 19 5 49 12 65 15 17 3
82 19 145 35 63 17 133 35 155 41 42 10 295 93 330 108 11 5 47 18 80 31 76
28 88 32 155 60 76 32 435 208 491 240 25 15 65 39 90 52 84 47 94 53 99 58
12 12 70 50 76 50 9 0 250 165 301 206 23 19 44 34 47 34 3 0 18 11 33 25 16
13 57 47 93 75 117 93 256 219 399 361 91 91 221 229 221 235 0 2 16 19 35 39
20 19 33 35 31 35 -3 0 5 10 17 23 26 27 51 58 89 109 15 20 33 42 41 50 7 7
30 38 52 68 22 30 42 57 45 60 3 3 28 39 55 80 28 41 52 77 55 80 3 3 32 48
64 100 33 52 66 106 75 120 8 14 24 41 35 60 10 19 24 38 30 42 6 4 8 8 3 8
-4 0 3 17 16 38 27 43 173 335 202 402 10 25 28 65 39 90 11 25 21 50 22 55 1
6 8 24 15 40 7 17 12 33 11 38 -1 4 2 7 8 7 6 0 9 3 8 8 -3 9 8 42 39 121 13
35 26 71 28 80 2 9 15 50 28 91 22 67 46 147 53 175 1 6 12 48 24 95 12 47 24
96 26 110 3 14 7 31 9 39 10 27 38 169 54 271 6 36 13 81 16 100 18 116 20
130 29 255 4 50 10 110 14 135 8 55 8 659 0 715 -3 22 -9 85 -13 140 -4 55 -9
109 -11 120 -2 11 -6 40 -9 65 -3 25 -8 54 -10 66 -2 11 -7 45 -10 75 -4 30
-10 68 -15 84 -5 17 -12 50 -15 75 -4 25 -16 83 -27 130 -11 47 -22 96 -24
109 -3 13 -19 74 -35 135 -17 61 -32 116 -33 121 -2 6 -6 17 -9 25 -3 8 -22
65 -42 125 -19 61 -39 119 -44 130 -4 11 -18 47 -31 80 -90 239 -236 539 -373
770 -96 160 -254 398 -268 403 -5 2 -9 8 -9 14 0 10 -221 289 -275 348 -18 19
-57 61 -86 94 -75 81 -244 251 -311 311 -108 98 -179 159 -200 174 -12 8 -29
22 -38 30 -9 9 -29 25 -44 36 -16 11 -39 30 -52 43 -13 12 -28 22 -34 22 -5 0
-10 5 -10 10 0 6 -7 10 -15 10 -8 0 -15 4 -15 8 0 7 -224 167 -255 182 -5 3
-41 25 -80 50 -38 25 -72 43 -74 42 -2 -2 -7 0 -10 5 -17 25 -415 235 -576
305 -136 58 -261 108 -273 108 -7 0 -20 4 -30 10 -39 22 -382 130 -462 146
-14 3 -59 14 -100 24 -74 19 -197 45 -255 54 -16 3 -70 12 -120 20 -49 8 -110
18 -135 21 -24 4 -47 8 -51 10 -3 2 -55 7 -115 10 -60 4 -125 9 -144 12 -47 8
-674 15 -681 8z"/>
</g>
</svg>
